<?xml version="1.0" encoding="utf-8"?>
<!-- Generator: Adobe Illustrator 16.0.0, SVG Export Plug-In . SVG Version: 6.00 Build 0)  -->
<!DOCTYPE svg PUBLIC "-//W3C//DTD SVG 1.1//EN" "http://www.w3.org/Graphics/SVG/1.1/DTD/svg11.dtd">
<svg version="1.1"
	 id="svg2" xmlns:dc="http://purl.org/dc/elements/1.1/" xmlns:cc="http://creativecommons.org/ns#" xmlns:rdf="http://www.w3.org/1999/02/22-rdf-syntax-ns#" xmlns:svg="http://www.w3.org/2000/svg" xmlns:sodipodi="http://sodipodi.sourceforge.net/DTD/sodipodi-0.dtd" xmlns:inkscape="http://www.inkscape.org/namespaces/inkscape" sodipodi:docname="New document 1" inkscape:version="0.47 r22583"
	 xmlns="http://www.w3.org/2000/svg" xmlns:xlink="http://www.w3.org/1999/xlink" x="0px" y="0px" width="393.977px"
	 height="363.422px" viewBox="0 0 393.977 363.422" enable-background="new 0 0 393.977 363.422" xml:space="preserve">
<rect id="rect2816" x="114.162" y="113.888" transform="matrix(-0.7071 -0.7071 0.7071 -0.7071 196.641 473.7988)" fill="#E30A17" width="164.572" height="164.571"/>
<path id="path2820" sodipodi:ry="117.14286" sodipodi:rx="117.14286" sodipodi:cy="400.93362" sodipodi:cx="294.28571" sodipodi:type="arc" fill="#E30A17" d="
	M223.842,136.302c0,46.582-37.761,84.342-84.343,84.342c-46.581,0-84.343-37.761-84.343-84.342
	c0-46.582,37.762-84.343,84.343-84.343C186.081,51.959,223.842,89.72,223.842,136.302z"/>
<path id="path2822" sodipodi:ry="117.14286" sodipodi:rx="117.14286" sodipodi:cy="400.93362" sodipodi:cx="294.28571" sodipodi:type="arc" fill="#E30A17" d="
	M338.818,135.222c0,46.582-37.761,84.343-84.342,84.343c-46.582,0-84.343-37.761-84.343-84.343
	c0-46.581,37.761-84.342,84.343-84.342C301.058,50.88,338.818,88.641,338.818,135.222z"/>
<rect x="132.941" y="1.176" fill="#E30A17" width="27.795" height="362.07"/>
<rect x="231.241" y="1.176" fill="#E30A17" width="27.794" height="362.07"/>
<g>
	
		<rect id="rect2816_1_" x="147.792" y="141.424" transform="matrix(-0.7071 -0.7071 0.7071 -0.7071 201.1679 463.9302)" fill="#FFFFFF" width="97.755" height="97.755"/>
	
		<path id="path2820_1_" sodipodi:ry="117.14286" sodipodi:rx="117.14286" sodipodi:cy="400.93362" sodipodi:cx="294.28571" sodipodi:type="arc" fill="#FFFFFF" d="
		M212.94,154.738c0,27.669-22.431,50.099-50.1,50.099c-27.67,0-50.101-22.43-50.101-50.099c0-27.67,22.431-50.1,50.101-50.1
		C190.51,104.638,212.94,127.068,212.94,154.738z"/>
	
		<path id="path2822_1_" sodipodi:ry="117.14286" sodipodi:rx="117.14286" sodipodi:cy="400.93362" sodipodi:cx="294.28571" sodipodi:type="arc" fill="#FFFFFF" d="
		M281.235,154.096c0,27.669-22.43,50.099-50.098,50.099c-27.67,0-50.101-22.43-50.101-50.099s22.431-50.099,50.101-50.099
		C258.806,103.997,281.235,126.427,281.235,154.096z"/>
</g>
<g>
	
		<rect id="rect2816_2_" x="172.389" y="161.567" transform="matrix(-0.7071 -0.7071 0.7071 -0.7071 204.4783 456.7112)" fill="#FF0019" width="48.878" height="48.878"/>
	
		<path id="path2820_2_" sodipodi:ry="117.14286" sodipodi:rx="117.14286" sodipodi:cy="400.93362" sodipodi:cx="294.28571" sodipodi:type="arc" fill="#FF0019" d="
		M204.964,168.224c0,13.834-11.215,25.049-25.05,25.049s-25.05-11.215-25.05-25.049c0-13.835,11.215-25.05,25.05-25.05
		S204.964,154.389,204.964,168.224z"/>
	
		<path id="path2822_2_" sodipodi:ry="117.14286" sodipodi:rx="117.14286" sodipodi:cy="400.93362" sodipodi:cx="294.28571" sodipodi:type="arc" fill="#FF0019" d="
		M239.111,167.904c0,13.834-11.215,25.05-25.049,25.05c-13.835,0-25.05-11.215-25.05-25.05s11.215-25.049,25.05-25.049
		C227.896,142.854,239.111,154.069,239.111,167.904z"/>
</g>
</svg>
